<svg xmlns="http://www.w3.org/2000/svg" fill-rule="evenodd" stroke-linejoin="round" stroke-miterlimit="2" clip-rule="evenodd" viewBox="0 0 24 24" id="linkedin"><g transform="translate(-40 -40)"><rect width="24" height="24" x="40" y="40" fill="none"></rect><path fill="#2c2c2c" d="M296,199.1C292.215,199.1 289.1,202.215 289.1,206C289.1,206 289.1,213 289.1,213C289.1,213.497 289.503,213.9 290,213.9L294,213.9C294.497,213.9 294.9,213.497 294.9,213L294.9,206C294.9,205.397 295.397,204.9 296,204.9C296.603,204.9 297.1,205.397 297.1,206C297.1,206 297.1,213 297.1,213C297.1,213.497 297.503,213.9 298,213.9L302,213.9C302.497,213.9 302.9,213.497 302.9,213L302.9,206C302.9,202.215 299.785,199.1 296,199.1ZM286.9,201C286.9,200.503 286.497,200.1 286,200.1L282,200.1C281.503,200.1 281.1,200.503 281.1,201L281.1,213C281.1,213.497 281.503,213.9 282,213.9L286,213.9C286.497,213.9 286.9,213.497 286.9,213L286.9,201ZM301.1,212.1L301.1,206C301.1,203.202 298.798,200.9 296,200.9C293.202,200.9 290.9,203.202 290.9,206L290.9,212.1L293.1,212.1L293.1,206C293.1,204.409 294.409,203.1 296,203.1C297.591,203.1 298.9,204.409 298.9,206L298.9,212.1L301.1,212.1ZM282.9,201.9L282.9,212.1L285.1,212.1L285.1,201.9L282.9,201.9ZM284,193.1C282.399,193.1 281.1,194.399 281.1,196C281.1,197.601 282.399,198.9 284,198.9C285.601,198.9 286.9,197.601 286.9,196C286.9,194.399 285.601,193.1 284,193.1ZM284,194.9C284.607,194.9 285.1,195.393 285.1,196C285.1,196.607 284.607,197.1 284,197.1C283.393,197.1 282.9,196.607 282.9,196C282.9,195.393 283.393,194.9 284,194.9Z" transform="translate(-240 -152)"></path></g></svg>